<svg width="462" height="700" viewBox="0 0 462 700" fill="none" xmlns="http://www.w3.org/2000/svg">
<rect x="31" width="400" height="400" fill="#8E6E53"/>
<path d="M231 700L30.9481 400L431.052 400L231 700Z" fill="#8E6E53"/>
<path d="M231 171.875C285.004 171.875 361.566 255.957 361.566 309.277C361.566 333.203 343.109 346.875 313.031 346.875C279.535 346.875 257.66 329.785 231 329.785C203.656 329.785 181.781 346.875 148.285 346.875C117.523 346.875 99.75 333.203 99.75 309.277C99.75 255.957 176.312 171.875 231 171.875ZM129.828 163.672C137.348 186.914 127.094 210.156 106.586 214.941C86.7617 219.727 64.8867 204.688 58.0508 180.762C50.5312 156.836 61.4688 134.277 81.293 129.492C101.117 124.707 122.992 139.746 129.828 163.672ZM187.934 149.316C166.742 154.785 142.816 135.645 135.297 105.566C127.094 75.4883 137.348 47.4609 158.539 41.9922C179.73 37.207 203.656 54.9805 211.859 85.7422C219.379 115.82 209.125 143.848 187.934 149.316ZM380.023 129.492C399.848 134.277 410.785 156.836 403.266 180.762C396.43 204.688 374.555 219.043 354.73 214.941C334.906 210.156 323.969 187.598 331.488 163.672C338.324 139.746 360.199 125.391 380.023 129.492ZM273.383 149.316C252.191 143.848 241.938 115.137 250.141 85.7422C257.66 55.6641 282.27 36.5234 302.777 41.9922C323.969 47.4609 334.223 76.1719 326.02 105.566C318.5 135.645 293.891 154.785 273.383 149.316Z" fill="#DEDBDE"/>
</svg>
