<svg width="462" height="700" viewBox="0 0 462 700" fill="none" xmlns="http://www.w3.org/2000/svg">
<rect x="31" width="400" height="400" fill="#043F2D"/>
<path d="M231 700L30.9481 400L431.052 400L231 700Z" fill="#043F2D"/>
<path d="M157.828 106.641C157.828 123.291 143.863 136.719 127.75 136.719C111.1 136.719 97.6719 123.291 97.6719 106.641C97.6719 90.5273 111.1 76.5625 127.75 76.5625C143.863 76.5625 157.828 90.5273 157.828 106.641ZM170.719 165.186C154.605 179.15 144.938 200.098 144.938 222.656C144.938 241.455 150.846 258.105 162.125 271.533V282.812C162.125 292.48 154.068 300 144.938 300H110.562C100.895 300 93.375 292.48 93.375 282.812V268.848C72.9648 259.18 59 238.232 59 214.062C59 181.299 85.8555 153.906 119.156 153.906H136.344C148.697 153.906 161.051 158.203 170.719 165.186ZM93.375 191.504C88.0039 197.412 84.7812 205.469 84.7812 214.062C84.7812 223.193 88.0039 231.25 93.375 237.158V191.504ZM299.625 282.812V271.533C310.367 258.105 316.812 241.455 316.812 222.656C316.812 200.098 306.607 179.15 290.494 165.186C300.162 158.203 312.516 153.906 325.406 153.906H342.594C375.357 153.906 402.75 181.299 402.75 214.062C402.75 238.232 388.248 259.18 368.375 268.848V282.812C368.375 292.48 360.318 300 351.188 300H316.812C307.145 300 299.625 292.48 299.625 282.812ZM368.375 237.158C373.209 231.25 376.969 223.193 376.969 214.062C376.969 205.469 373.209 197.412 368.375 191.504V237.158ZM364.078 106.641C364.078 123.291 350.113 136.719 334 136.719C317.35 136.719 303.922 123.291 303.922 106.641C303.922 90.5273 317.35 76.5625 334 76.5625C350.113 76.5625 364.078 90.5273 364.078 106.641ZM196.5 110.938C196.5 92.1387 211.539 76.5625 230.875 76.5625C249.674 76.5625 265.25 92.1387 265.25 110.938C265.25 130.273 249.674 145.312 230.875 145.312C211.539 145.312 196.5 130.273 196.5 110.938ZM299.625 222.656C299.625 246.826 285.123 267.773 265.25 277.441V300C265.25 309.668 257.193 317.188 248.062 317.188H213.688C204.02 317.188 196.5 309.668 196.5 300V277.441C176.09 267.773 162.125 246.826 162.125 222.656C162.125 189.893 188.98 162.5 222.281 162.5H239.469C272.232 162.5 299.625 189.893 299.625 222.656ZM196.5 245.752V200.098C191.129 206.006 187.906 214.062 187.906 222.656C187.906 231.787 191.129 239.844 196.5 245.752ZM265.25 200.098V245.752C270.084 239.307 273.844 231.787 273.844 222.656C273.844 214.062 270.084 206.006 265.25 200.098Z" fill="#DEDBDE"/>
</svg>
