<svg width="462" height="700" viewBox="0 0 462 700" fill="none" xmlns="http://www.w3.org/2000/svg">
<rect x="31" width="400" height="400" fill="#373844"/>
<path d="M231 700L30.9481 400L431.052 400L231 700Z" fill="#373844"/>
<path d="M406 193.75C406 290.82 327.387 368.75 231 368.75C133.93 368.75 56 290.82 56 193.75C56 97.3633 133.93 18.75 231 18.75C327.387 18.75 406 97.3633 406 193.75ZM123.676 117.871C108.637 139.746 99.75 165.723 99.75 193.75C99.75 266.211 157.855 325 231 325C259.027 325 285.004 316.113 306.879 301.074L123.676 117.871ZM362.25 193.75C362.25 121.289 303.461 62.5 231 62.5C202.289 62.5 176.312 72.0703 154.438 87.1094L337.641 270.312C352.68 248.438 362.25 222.461 362.25 193.75Z" fill="#DEDBDE"/>
</svg>
