<svg width="462" height="743" viewBox="0 0 462 743" fill="none" xmlns="http://www.w3.org/2000/svg">
<rect x="31" y="43" width="400" height="400" fill="#373844"/>
<path d="M231 743L30.9481 443L431.052 443L231 743Z" fill="#373844"/>
<path d="M223.746 64.4844C229.898 61.0664 237.418 61.0664 243.57 64.4844L352.945 119.172C363.883 124.641 367.984 137.629 362.516 148.566C359.098 156.086 350.895 160.188 343.375 160.188V214.875C343.375 227.18 333.121 236.75 321.5 236.75H318.082L339.957 368H387.125C398.746 368 409 378.254 409 389.875C409 402.18 398.746 411.75 387.125 411.75H321.5H320.816H146.5H145.816H80.875C68.5703 411.75 59 402.18 59 389.875C59 378.254 68.5703 368 80.875 368H127.359L149.234 236.75H146.5C134.195 236.75 124.625 227.18 124.625 214.875V160.188C116.422 160.188 108.219 156.086 104.801 148.566C99.332 137.629 103.434 124.641 114.371 119.172L223.746 64.4844ZM273.648 368L234 335.188L193.668 368H273.648ZM190.934 256.574L234 292.121L276.383 256.574L273.648 236.75H193.668L190.934 256.574ZM184.098 294.172L176.578 339.973L208.023 313.312L184.098 294.172ZM259.293 313.312L290.738 339.973L283.219 294.172L259.293 313.312ZM179.312 149.25C173.16 149.25 168.375 154.719 168.375 160.188C168.375 166.34 173.16 171.125 179.312 171.125H288.688C294.156 171.125 299.625 166.34 299.625 160.188C299.625 154.719 294.156 149.25 288.688 149.25H179.312Z" fill="#73AB84"/>
</svg>
