<svg width="462" height="727" viewBox="0 0 462 727" fill="none" xmlns="http://www.w3.org/2000/svg">
<rect x="31" y="27" width="400" height="400" fill="#373844"/>
<path d="M231 727L30.9481 427L431.052 427L231 727Z" fill="#373844"/>
<path d="M363.461 318.414C374.887 328.961 374.887 347.418 363.461 357.965C358.188 363.238 351.156 365.875 344.125 365.875C336.215 365.875 329.184 363.238 323.91 357.965L231.625 265.68L138.461 357.965C133.188 363.238 126.156 365.875 119.125 365.875C111.215 365.875 104.184 363.238 98.9102 357.965C87.4844 347.418 87.4844 328.961 98.9102 318.414L191.195 225.25L98.9102 132.965C87.4844 122.418 87.4844 103.961 98.9102 93.4141C109.457 81.9883 127.914 81.9883 138.461 93.4141L231.625 185.699L323.91 93.4141C334.457 81.9883 352.914 81.9883 363.461 93.4141C374.887 103.961 374.887 122.418 363.461 132.965L271.176 226.129L363.461 318.414Z" fill="#F25C54"/>
</svg>
