<svg width="462" height="743" viewBox="0 0 462 743" fill="none" xmlns="http://www.w3.org/2000/svg">
<rect x="31" y="43" width="400" height="400" fill="#373844"/>
<path d="M231 743L30.9481 443L431.052 443L231 743Z" fill="#373844"/>
<path d="M156.531 255.062C132.361 255.062 113.562 236.264 113.562 212.094C113.562 188.461 132.361 169.125 156.531 169.125C180.164 169.125 199.5 188.461 199.5 212.094C199.5 236.264 180.164 255.062 156.531 255.062ZM354.188 169.125C382.654 169.125 405.75 192.221 405.75 220.688V349.594C405.75 354.428 401.453 358.188 397.156 358.188H379.969C375.135 358.188 371.375 354.428 371.375 349.594V323.812H96.375V349.594C96.375 354.428 92.0781 358.188 87.7812 358.188H70.5938C65.7598 358.188 62 354.428 62 349.594V126.156C62 121.859 65.7598 117.562 70.5938 117.562H87.7812C92.0781 117.562 96.375 121.859 96.375 126.156V272.25H216.688V177.719C216.688 173.422 220.447 169.125 225.281 169.125H354.188Z" fill="#DEDBDE"/>
</svg>
